<?xml version="1.0" encoding="UTF-8"?>
<svg id="_레이어_1" data-name="레이어 1" xmlns="http://www.w3.org/2000/svg" viewBox="0 0 150.65 151.45">
  <rect x="-2.23" y="51.25" width="152.41" height="53.93" rx="26.97" ry="26.97" transform="translate(-33.07 66.77) rotate(-40.49)"/>
  <path d="M10.36,46.15c.7,17.39,21.5,26.06,34.73,14.76l48.6-41.49c.56-.47,1.13-.91,1.71-1.34h-58.09c-14.89,0-26.97,12.07-26.97,26.97h0c0,.37,0,.74.02,1.1Z"/>
  <path d="M139.23,102.17c10.76,13.68.57,33.78-16.82,33.78h-63.9c-.73,0-1.45.04-2.17.09l44.18-37.72c11.33-9.67,28.35-8.33,38.02,3h0c.24.28.47.56.7.85Z"/>
</svg>