<svg width="18" height="20" viewBox="0 0 18 20" fill="none" xmlns="http://www.w3.org/2000/svg">
<path d="M17.2203 14.6195C17.2203 15.4695 16.5303 16.1595 15.6803 16.1595H2.32028C1.47028 16.1595 0.780273 15.4695 0.780273 14.6195C0.780273 13.7695 1.47028 13.0795 2.32028 13.0795H2.83026V7.93953C2.83026 4.53953 5.59027 1.76953 9.00027 1.76953C10.7003 1.76953 12.2403 2.45953 13.3603 3.57953C14.4803 4.68953 15.1703 6.22953 15.1703 7.93953V13.0795H15.6803C16.5303 13.0795 17.2203 13.7695 17.2203 14.6195Z" stroke="black" stroke-linecap="round" stroke-linejoin="round"/>
<path d="M9 1.78V0.75" stroke="black" stroke-linecap="round" stroke-linejoin="round"/>
<path d="M12.0799 16.1699C12.0799 17.8799 10.6999 19.2499 8.99991 19.2499C7.29991 19.2499 5.91992 17.8699 5.91992 16.1699H12.0799Z" stroke="black" stroke-linecap="round" stroke-linejoin="round"/>
</svg>
