<svg width="24" height="24" viewBox="0 0 24 24" fill="none" xmlns="http://www.w3.org/2000/svg">
<path d="M20.2203 16.6195C20.2203 17.4695 19.5303 18.1595 18.6803 18.1595H5.32028C4.47028 18.1595 3.78027 17.4695 3.78027 16.6195C3.78027 15.7695 4.47028 15.0795 5.32028 15.0795H5.83026V9.93953C5.83026 6.53953 8.59027 3.76953 12.0003 3.76953C13.7003 3.76953 15.2403 4.45953 16.3603 5.57953C17.4803 6.68953 18.1703 8.22953 18.1703 9.93953V15.0795H18.6803C19.5303 15.0795 20.2203 15.7695 20.2203 16.6195Z" stroke="black" stroke-linecap="round" stroke-linejoin="round"/>
<path d="M12 3.78V2.75" stroke="black" stroke-linecap="round" stroke-linejoin="round"/>
<path d="M15.0799 18.1699C15.0799 19.8799 13.6999 21.2499 11.9999 21.2499C10.2999 21.2499 8.91992 19.8699 8.91992 18.1699H15.0799Z" stroke="black" stroke-linecap="round" stroke-linejoin="round"/>
<circle cx="21" cy="3" r="2" fill="#058053"/>
</svg>
