<svg width="13" height="14" viewBox="0 0 13 14" fill="none" xmlns="http://www.w3.org/2000/svg">
<path d="M4.52712 10.539H4.26084C2.13057 10.539 1.06543 10.0064 1.06543 7.3436V4.68076C1.06543 2.55049 2.13057 1.48535 4.26084 1.48535H8.52138C10.6517 1.48535 11.7168 2.55049 11.7168 4.68076V7.3436C11.7168 9.47387 10.6517 10.539 8.52138 10.539H8.25509C8.09 10.539 7.93023 10.6189 7.82904 10.752L7.03019 11.8172C6.67869 12.2858 6.10352 12.2858 5.75203 11.8172L4.95317 10.752C4.86796 10.6349 4.67091 10.539 4.52712 10.539Z" stroke="#171717" stroke-width="0.798852" stroke-miterlimit="10" stroke-linecap="round" stroke-linejoin="round"/>
<path d="M3.72754 4.68066H9.05322" stroke="#171717" stroke-width="0.798852" stroke-linecap="round" stroke-linejoin="round"/>
<path d="M3.72754 7.34375H6.92295" stroke="#171717" stroke-width="0.798852" stroke-linecap="round" stroke-linejoin="round"/>
</svg>
