<svg width="16" height="15" viewBox="0 0 16 15" fill="none" xmlns="http://www.w3.org/2000/svg">
<path d="M5.35156 10.8589L7.18596 12.2791C7.42266 12.5158 7.95523 12.6342 8.31027 12.6342H10.5589C11.269 12.6342 12.0382 12.1016 12.2158 11.3915L13.636 7.07178C13.9318 6.24334 13.3993 5.53325 12.5116 5.53325H10.1447C9.78963 5.53325 9.49376 5.23738 9.55293 4.82316L9.8488 2.92958C9.96715 2.39702 9.6121 1.80527 9.07954 1.62775C8.60614 1.45023 8.0144 1.68693 7.7777 2.04197L5.35156 5.6516" stroke="#171717" stroke-width="0.887613" stroke-miterlimit="10"/>
<path d="M2.33301 10.8589V5.05986C2.33301 4.23142 2.68805 3.93555 3.51649 3.93555H4.10823C4.93667 3.93555 5.29172 4.23142 5.29172 5.05986V10.8589C5.29172 11.6874 4.93667 11.9832 4.10823 11.9832H3.51649C2.68805 11.9832 2.33301 11.6874 2.33301 10.8589Z" stroke="#171717" stroke-width="0.887613" stroke-linecap="round" stroke-linejoin="round"/>
</svg>
