<svg width="14" height="14" viewBox="0 0 14 14" fill="none" xmlns="http://www.w3.org/2000/svg">
<path d="M7.74157 2.28927L8.67889 4.16391C8.8067 4.42487 9.14755 4.67517 9.43513 4.72311L11.134 5.00537C12.2205 5.18644 12.4761 5.97464 11.6932 6.75219L10.3725 8.07296C10.1488 8.29664 10.0263 8.72802 10.0955 9.0369L10.4736 10.6719C10.7719 11.966 10.0849 12.4666 8.93985 11.7903L7.34747 10.8476C7.05988 10.6772 6.5859 10.6772 6.29298 10.8476L4.70061 11.7903C3.56091 12.4666 2.86857 11.9607 3.16681 10.6719L3.54493 9.0369C3.61417 8.72802 3.49168 8.29664 3.268 8.07296L1.94723 6.75219C1.16968 5.97464 1.41999 5.18644 2.50643 5.00537L4.20532 4.72311C4.48758 4.67517 4.82842 4.42487 4.95624 4.16391L5.89356 2.28927C6.40482 1.27207 7.23563 1.27207 7.74157 2.28927Z" stroke="#171717" stroke-width="0.798852" stroke-linecap="round" stroke-linejoin="round"/>
</svg>
