<svg width="44" height="44" viewBox="0 0 44 44" fill="none" xmlns="http://www.w3.org/2000/svg">
<g clip-path="url(#clip0_175_2579)">
<path d="M28.8624 29.8219L23.1199 24.0794C22.6642 24.444 22.1401 24.7326 21.5476 24.9453C20.9551 25.158 20.3247 25.2644 19.6562 25.2644C18.0003 25.2644 16.5989 24.6909 15.4519 23.5439C14.3049 22.3969 13.7314 20.9955 13.7314 19.3396C13.7314 17.6837 14.3049 16.2822 15.4519 15.1353C16.5989 13.9883 18.0003 13.4148 19.6562 13.4148C21.3121 13.4148 22.7136 13.9883 23.8605 15.1353C25.0075 16.2822 25.581 17.6837 25.581 19.3396C25.581 20.008 25.4747 20.6385 25.262 21.2309C25.0493 21.8234 24.7606 22.3475 24.396 22.8033L30.1385 28.5458L28.8624 29.8219ZM19.6562 23.4413C20.7956 23.4413 21.7641 23.0426 22.5616 22.245C23.3592 21.4474 23.758 20.479 23.758 19.3396C23.758 18.2002 23.3592 17.2317 22.5616 16.4342C21.7641 15.6366 20.7956 15.2378 19.6562 15.2378C18.5168 15.2378 17.5484 15.6366 16.7508 16.4342C15.9532 17.2317 15.5545 18.2002 15.5545 19.3396C15.5545 20.479 15.9532 21.4474 16.7508 22.245C17.5484 23.0426 18.5168 23.4413 19.6562 23.4413Z" fill="black"/>
</g>
<defs>
<clipPath id="clip0_175_2579">
<rect x="3.70508" y="3.38818" width="36.4602" height="36.4602" rx="18.2301" fill="white"/>
</clipPath>
</defs>
</svg>
