<svg width="23" height="23" viewBox="0 0 23 23" fill="none" xmlns="http://www.w3.org/2000/svg">
<path d="M10.542 1.91675H8.62533C3.83366 1.91675 1.91699 3.83341 1.91699 8.62508V14.3751C1.91699 19.1667 3.83366 21.0834 8.62533 21.0834H14.3753C19.167 21.0834 21.0837 19.1667 21.0837 14.3751V12.4584" stroke="white" stroke-width="0.958333" stroke-linecap="round" stroke-linejoin="round"/>
<path d="M15.3713 2.89404L7.81964 10.4457C7.53214 10.7332 7.24464 11.2986 7.18714 11.7107L6.77506 14.5953C6.62172 15.6399 7.35964 16.3682 8.40422 16.2245L11.2888 15.8124C11.6913 15.7549 12.2567 15.4674 12.5538 15.1799L20.1055 7.62821C21.4088 6.32488 22.0221 4.81071 20.1055 2.89404C18.1888 0.977376 16.6746 1.59071 15.3713 2.89404Z" stroke="white" stroke-width="0.958333" stroke-miterlimit="10" stroke-linecap="round" stroke-linejoin="round"/>
<path d="M14.2891 3.97705C14.9311 6.26747 16.7232 8.05955 19.0232 8.71122" stroke="white" stroke-width="0.958333" stroke-miterlimit="10" stroke-linecap="round" stroke-linejoin="round"/>
</svg>
